<svg xmlns="http://www.w3.org/2000/svg" width="110" height="28" fill="none"><path fill="#fff" d="M106.121 3.558C103.534 1.201 99.823.022 94.987.022h-9.582v26.11L74.08.021h-5.858L57.508 24.724a3758.24 3758.24 0 0 1-3.968-5.554 1759.526 1759.526 0 0 0-5.16-7.207L59.166.023h-7.487l-10.242 11.09V.022h-6.052v27.01h6.052v-7.651l2.715-3.014 7.954 10.665h10.842l2.52-5.835h11.367l2.523 5.835h15.32c5.172 0 9.019-1.223 11.541-3.67 2.521-2.447 3.782-5.77 3.782-9.97 0-4.2-1.293-7.477-3.879-9.835ZM67.757 15.905 71.17 8.06l3.375 7.845h-6.79Zm33.922 3.709c-1.488 1.391-3.615 2.087-6.382 2.087h-3.84V5.278h3.375c3.077 0 5.359.714 6.847 2.144 1.487 1.43 2.23 3.472 2.231 6.125 0 2.654-.744 4.676-2.231 6.067ZM25.618 14.938c0 2.164-.498 3.871-1.493 5.12-.997 1.25-2.348 1.875-4.054 1.875-1.707 0-3.065-.625-4.075-1.875-1.007-1.249-1.512-2.956-1.512-5.12V5.274L9.493.022 0 0l2.647 2.637L0 5.274h14.484L8.432 6.522v8.61c0 3.89 1.093 6.891 3.278 9.003 2.186 2.113 4.973 3.169 8.36 3.169 3.389 0 6.169-1.05 8.341-3.15 2.173-2.099 3.259-5.107 3.258-9.022V.022L25.618 0v14.938Z"/></svg>